<svg xmlns="http://www.w3.org/2000/svg" xmlns:xlink="http://www.w3.org/1999/xlink" width="100" height="100" viewBox="0 0 100 100">
  <defs>
    <style>
      .cls-1 {
        fill: #4fb690;
      }

      .cls-2 {
        clip-path: url(#clip-path);
      }
    </style>
    <clipPath id="clip-path">
      <circle id="Ellipse_434" data-name="Ellipse 434" class="cls-1" cx="50" cy="50" r="50" transform="translate(1524.268 7.768)"/>
    </clipPath>
  </defs>
  <g id="Mask_Group_104" data-name="Mask Group 104" class="cls-2" transform="translate(-1524.268 -7.768)">
    <g id="user3" transform="translate(1524.713 8.213)">
      <g id="Group_7305" data-name="Group 7305" transform="translate(0 0)">
        <g id="Group_7304" data-name="Group 7304">
          <path id="Path_5003" data-name="Path 5003" class="cls-1" d="M48.878,0A48.878,48.878,0,1,0,97.756,48.878,48.934,48.934,0,0,0,48.878,0Zm0,93.506A44.628,44.628,0,1,1,93.506,48.878,44.677,44.677,0,0,1,48.878,93.506Z" transform="translate(0 0)"/>
        </g>
      </g>
      <g id="Group_7307" data-name="Group 7307" transform="translate(21.251 46.753)">
        <g id="Group_7306" data-name="Group 7306">
          <path id="Path_5004" data-name="Path 5004" class="cls-1" d="M38.5,23.913A27.659,27.659,0,0,0,10.87,51.54a2.125,2.125,0,1,0,4.25,0,23.376,23.376,0,1,1,46.753,0,2.125,2.125,0,1,0,4.25,0A27.659,27.659,0,0,0,38.5,23.913Z" transform="translate(-10.87 -23.913)"/>
        </g>
      </g>
      <g id="Group_7309" data-name="Group 7309" transform="translate(34.002 12.751)">
        <g id="Group_7308" data-name="Group 7308">
          <path id="Path_5005" data-name="Path 5005" class="cls-1" d="M32.267,6.522A14.876,14.876,0,1,0,47.143,21.4,14.892,14.892,0,0,0,32.267,6.522Zm0,25.5A10.626,10.626,0,1,1,42.893,21.4,10.64,10.64,0,0,1,32.267,32.023Z" transform="translate(-17.391 -6.522)"/>
        </g>
      </g>
    </g>
  </g>
</svg>
