<svg xmlns="http://www.w3.org/2000/svg" xmlns:xlink="http://www.w3.org/1999/xlink" width="40" height="40" viewBox="0 0 40 40">
  <defs>
    <style>
      .cls-1 {
        fill: #4fb690;
      }

      .cls-2 {
        clip-path: url(#clip-path);
      }
    </style>
    <clipPath id="clip-path">
      <circle id="Ellipse_433" data-name="Ellipse 433" class="cls-1" cx="20" cy="20" r="20" transform="translate(1524.5 8)"/>
    </clipPath>
  </defs>
  <g id="Mask_Group_88" data-name="Mask Group 88" class="cls-2" transform="translate(-1524.5 -8)">
    <g id="user3" transform="translate(1524.5 8)">
      <g id="Group_6781" data-name="Group 6781">
        <g id="Group_6780" data-name="Group 6780">
          <path id="Path_4975" data-name="Path 4975" class="cls-1" d="M19.8,0A19.8,19.8,0,1,0,39.6,19.8,19.822,19.822,0,0,0,19.8,0Zm0,37.876A18.077,18.077,0,1,1,37.876,19.8,18.1,18.1,0,0,1,19.8,37.876Z"/>
        </g>
      </g>
      <g id="Group_6783" data-name="Group 6783" transform="translate(8.608 18.938)">
        <g id="Group_6782" data-name="Group 6782">
          <path id="Path_4976" data-name="Path 4976" class="cls-1" d="M22.06,23.913A11.2,11.2,0,0,0,10.87,35.1a.861.861,0,1,0,1.722,0,9.469,9.469,0,0,1,18.938,0,.861.861,0,1,0,1.722,0A11.2,11.2,0,0,0,22.06,23.913Z" transform="translate(-10.87 -23.913)"/>
        </g>
      </g>
      <g id="Group_6785" data-name="Group 6785" transform="translate(13.773 5.165)">
        <g id="Group_6784" data-name="Group 6784">
          <path id="Path_4977" data-name="Path 4977" class="cls-1" d="M23.417,6.522a6.026,6.026,0,1,0,6.026,6.026A6.032,6.032,0,0,0,23.417,6.522Zm0,10.33a4.3,4.3,0,1,1,4.3-4.3A4.31,4.31,0,0,1,23.417,16.852Z" transform="translate(-17.391 -6.522)"/>
        </g>
      </g>
    </g>
  </g>
</svg>
