<svg xmlns="http://www.w3.org/2000/svg" width="20" height="20" viewBox="0 0 20 20">
  <path id="Notification_Icon" data-name="Notification Icon" d="M-1369.5,84.5h5A2.507,2.507,0,0,1-1367,87,2.507,2.507,0,0,1-1369.5,84.5Zm-6.25-1.25A1.182,1.182,0,0,1-1377,82a1.181,1.181,0,0,1,1.25-1.25h.625A5.442,5.442,0,0,0-1373.25,77V73.25A6.19,6.19,0,0,1-1367,67a6.189,6.189,0,0,1,6.249,6.25V77a5.439,5.439,0,0,0,1.875,3.751h.625A1.181,1.181,0,0,1-1357,82a1.182,1.182,0,0,1-1.25,1.25Z" transform="translate(1377 -67)" fill="#01b67d"/>
</svg>
